# xmcd CD database file
#
# Track frame offsets:
#	150
#	20056
#	42617
#	73404
#	96198
#	118663
#	140969
#	159588
#	178730
#	198142
#
# Disc length: 3045 seconds
#
# Revision: 1
# Processed by: cddbd v1.5.1PL0 Copyright (c) Steve Scherf et al.
# Submitted via: CDex 1.51
#
DISCID=9b0be30a
DTITLE=Sanctuary 04 - A Breath of Spring
DYEAR=2000
DGENRE=New Age
TTITLE0=A Breath of Spring
TTITLE1=A Soft Day
TTITLE2=Awakening
TTITLE3=Time For All
TTITLE4=Vernal Evening
TTITLE5=Aibrean (April)
TTITLE6=In Praise of the Robin
TTITLE7=A Crimson Friend
TTITLE8=Song From the Meadow
TTITLE9=Dawn on Lough Conn
EXTD=YEAR: 2000
EXTT0=
EXTT1=
EXTT2=
EXTT3=
EXTT4=
EXTT5=
EXTT6=
EXTT7=
EXTT8=
EXTT9=
PLAYORDER=
